<?xml version="1.0" encoding="utf-8"?>
<!-- Generator: Adobe Illustrator 23.1.1, SVG Export Plug-In . SVG Version: 6.00 Build 0)  -->
<svg version="1.1" id="Layer_1" xmlns="http://www.w3.org/2000/svg" xmlns:xlink="http://www.w3.org/1999/xlink" x="0px" y="0px"
	 viewBox="0 0 524.3 83.3" style="enable-background:new 0 0 524.3 83.3;" xml:space="preserve">
<style type="text/css">
	.st0{fill:none;stroke:#0095DA;stroke-width:2;stroke-miterlimit:10;}
	.st1{fill:#0095DA;}
	.st2{fill:#FFFFFF;}
</style>
<title>Asset 5</title>
<g>
	<g id="Layer_1-2">
		<line class="st0" x1="280.3" y1="7.2" x2="280.3" y2="73.5"/>
		<g>
			<g>
				<path class="st1" d="M305.6,22.5h-2.5v-6.3h-6.7v6.3H294V7.6h2.5v6.5h6.7V7.6h2.5L305.6,22.5z"/>
				<path class="st1" d="M317,19h-5.8l-1.2,3.5h-2.5l5.4-14.9h2.4l5.4,14.9h-2.5L317,19z M311.9,16.9h4.4l-2.1-6.4H314L311.9,16.9z"
					/>
				<path class="st1" d="M322.5,7.6h2.5v12.9h6.7V7.6h2.5v12.9h2v5.7h-2.5v-3.7h-11.1V7.6z"/>
				<path class="st1" d="M347.5,7.6h2.5v14.9h-2.5V11.8h-0.1l-6.6,10.7h-2.5V7.6h2.5v10.6h0.1L347.5,7.6z"/>
				<path class="st1" d="M364.9,16.4c0.1,1.7-0.6,3.3-1.7,4.5c-1.2,1.2-2.8,1.9-4.4,1.8c-1.6,0.1-3.2-0.6-4.3-1.8
					c-1.1-1.2-1.7-2.8-1.7-4.5v-2.7c-0.1-1.7,0.5-3.3,1.7-4.5c1.1-1.2,2.7-1.9,4.3-1.8c1.7-0.1,3.3,0.6,4.5,1.8
					c1.1,1.2,1.8,2.8,1.7,4.5V16.4z M362.4,13.7c0-1.1-0.3-2.2-1-3.1c-0.7-0.8-1.7-1.2-2.7-1.2c-1,0-2,0.4-2.6,1.2
					c-0.7,0.9-1,2-1,3.1v2.7c0,1.1,0.3,2.2,1,3.1c0.6,0.8,1.6,1.2,2.6,1.2c1,0,2-0.4,2.7-1.2c0.7-0.9,1-2,1-3.1L362.4,13.7z"/>
				<path class="st1" d="M379.1,22.5h-2.5v-6.3H370v6.3h-2.5V7.6h2.5v6.5h6.7V7.6h2.5L379.1,22.5z"/>
				<path class="st1" d="M390.5,19h-5.8l-1.2,3.5H381l5.5-14.9h2.4l5.4,14.9h-2.5L390.5,19z M385.4,16.9h4.4l-2.2-6.4h-0.1
					L385.4,16.9z"/>
				<path class="st1" d="M407.4,7.6v14.9H405V9.6h-4.8v4.9c0,2.8-0.4,4.8-1.2,6.1c-0.8,1.3-2.2,2-3.7,1.9h-0.5v-2h0.4
					c0.9,0,1.7-0.5,2-1.4c0.5-1.5,0.6-3.1,0.5-4.6V7.6H407.4z"/>
				<path class="st1" d="M413,13.3h3.1c1.4-0.1,2.8,0.4,3.9,1.2c0.9,0.8,1.5,2,1.4,3.3c0.1,1.3-0.5,2.5-1.4,3.3
					c-1.1,0.9-2.5,1.3-3.9,1.3h-5.6V7.6h2.5V13.3z M413,15.3v5.1h3.1c0.8,0.1,1.5-0.2,2.1-0.8c0.5-0.5,0.7-1.2,0.7-1.9
					c0-0.7-0.2-1.3-0.7-1.8c-0.6-0.5-1.3-0.8-2.1-0.7L413,15.3z"/>
				<path class="st1" d="M435.4,22.5H433v-6.3h-6.7v6.3h-2.5V7.6h2.5v6.5h6.7V7.6h2.5L435.4,22.5z"/>
				<path class="st1" d="M441.2,13.1h3.1c1.4-0.1,2.8,0.4,3.9,1.3c0.9,0.9,1.5,2.1,1.4,3.4c0,1.3-0.5,2.5-1.4,3.4
					c-1.1,0.9-2.5,1.4-3.9,1.3h-5.6V7.6h2.5L441.2,13.1z M441.2,15.1v5.4h3.1c0.8,0.1,1.5-0.2,2.1-0.8c0.5-0.5,0.7-1.3,0.7-2
					c0-0.7-0.2-1.4-0.7-1.9c-0.6-0.5-1.3-0.8-2.1-0.8L441.2,15.1z M453.7,22.5h-2.5V7.6h2.5V22.5z"/>
				<path class="st1" d="M466,7.6h2.5v14.9H466V11.8h-0.1l-6.6,10.7h-2.5V7.6h2.5v10.6h0.1L466,7.6z M465.9,3.2L465.9,3.2
					c0.1,0.8-0.3,1.6-0.9,2.1c-0.7,0.5-1.5,0.8-2.4,0.8c-0.9,0-1.7-0.2-2.4-0.8c-0.6-0.5-0.9-1.3-0.8-2V3.2h1.8c0,0.4,0.1,0.7,0.3,1
					c0.6,0.5,1.5,0.5,2,0c0.2-0.3,0.4-0.6,0.3-1H465.9z"/>
			</g>
			<g>
				<path class="st1" d="M303.1,32.7h2.5v14.9h-2.5V36.9H303l-6.6,10.7H294V32.7h2.5v10.6h0.1L303.1,32.7z"/>
				<path class="st1" d="M319.7,42.6L319.7,42.6c0.1,1.4-0.5,2.8-1.5,3.7c-1.1,1-2.6,1.5-4.1,1.4c-1.6,0.1-3.1-0.6-4.2-1.7
					c-1.1-1.2-1.7-2.8-1.6-4.5v-2.8c-0.1-1.6,0.5-3.3,1.6-4.5c1.1-1.2,2.6-1.8,4.2-1.8c1.5-0.1,3,0.4,4.1,1.4c1,1,1.6,2.3,1.5,3.7
					v0.1h-2.4c0.1-0.9-0.2-1.7-0.8-2.3c-0.6-0.6-1.5-0.9-2.4-0.8c-1,0-1.9,0.4-2.4,1.2c-0.6,0.9-0.9,1.9-0.9,3v2.9
					c0,1.1,0.3,2.1,0.9,3c0.6,0.8,1.5,1.2,2.5,1.2c0.9,0.1,1.7-0.2,2.3-0.8c0.6-0.6,0.8-1.5,0.8-2.3L319.7,42.6z"/>
				<path class="st1" d="M333,42.6L333,42.6c0.1,1.4-0.5,2.8-1.5,3.7c-1.1,1-2.6,1.5-4.1,1.4c-1.6,0.1-3.1-0.6-4.2-1.7
					c-1.1-1.2-1.7-2.8-1.6-4.5v-2.8c-0.1-1.6,0.5-3.2,1.6-4.5c1.1-1.2,2.6-1.8,4.2-1.8c1.5-0.1,3,0.4,4.1,1.4c1,1,1.6,2.3,1.5,3.7
					v0.1h-2.4c0.1-0.9-0.2-1.7-0.8-2.3c-0.6-0.6-1.5-0.9-2.4-0.8c-0.9,0-1.8,0.4-2.4,1.2c-0.6,0.9-0.9,1.9-0.9,3v2.9
					c0,1.1,0.3,2.1,0.9,3c0.6,0.8,1.5,1.2,2.5,1.2c0.9,0.1,1.7-0.2,2.3-0.8c0.6-0.6,0.9-1.5,0.8-2.3L333,42.6z"/>
				<path class="st1" d="M347,32.7v14.9h-2.5V34.7h-4.8v4.9c0,2.8-0.4,4.8-1.2,6.1c-0.8,1.3-2.2,2-3.7,1.9h-0.5v-2h0.4
					c0.9,0,1.7-0.5,2-1.3c0.5-1.5,0.6-3.1,0.6-4.7v-6.9H347z"/>
				<path class="st1" d="M359.2,40.8h-6.5v4.7h7.5v2h-10V32.7h10v2h-7.5v4.2h6.5L359.2,40.8z"/>
				<path class="st1" d="M375.8,51.2h-2.2v-3.7h-9.9v3.7h-2.2l-0.3-5.7h1.2c0.6-0.7,1.1-1.5,1.4-2.3c0.5-1.4,0.7-2.9,0.7-4.4
					l0.4-6.1h9.3v12.9h1.9L375.8,51.2z M367,38.7c0,1.4-0.2,2.7-0.6,4c-0.3,1-0.7,1.9-1.2,2.8h6.5V34.7h-4.5L367,38.7z"/>
				<path class="st1" d="M389.4,41.4c0.1,1.7-0.5,3.3-1.7,4.6c-1.2,1.2-2.8,1.9-4.4,1.8c-1.6,0.1-3.2-0.6-4.3-1.8
					c-1.1-1.2-1.7-2.9-1.7-4.5v-2.7c-0.1-1.7,0.5-3.3,1.7-4.5c1.1-1.2,2.7-1.9,4.3-1.8c1.7-0.1,3.3,0.6,4.5,1.8
					c1.1,1.2,1.8,2.8,1.7,4.5V41.4z M387,38.7c0-1.1-0.3-2.2-1-3c-0.7-0.8-1.7-1.2-2.7-1.2c-1,0-2,0.4-2.6,1.2c-0.6,0.9-1,1.9-1,3
					v2.7c0,1.1,0.3,2.2,1,3.1c0.6,0.8,1.6,1.2,2.6,1.2c1,0,2-0.4,2.7-1.2c0.7-0.9,1-2,1-3.1L387,38.7z"/>
				<path class="st1" d="M392.1,47.5V32.7h4.9c1.4-0.1,2.7,0.3,3.9,1c0.9,0.7,1.5,1.8,1.4,3c0,0.7-0.2,1.3-0.6,1.8
					c-0.4,0.5-1,1-1.6,1.2c0.8,0.2,1.6,0.7,2,1.3c0.5,0.7,0.7,1.5,0.7,2.3c0.1,1.2-0.4,2.4-1.4,3.2c-1.1,0.8-2.4,1.2-3.8,1.1
					L392.1,47.5z M394.6,38.9h2.7c0.7,0,1.3-0.2,1.8-0.5c0.5-0.4,0.7-1,0.7-1.5c0-0.6-0.2-1.2-0.7-1.6c-0.6-0.4-1.3-0.6-2.1-0.5
					h-2.5V38.9z M394.6,40.8v4.8h3.1c0.7,0.1,1.4-0.2,2-0.6c0.5-0.4,0.7-1.1,0.7-1.7c0-0.7-0.2-1.3-0.6-1.8
					c-0.5-0.5-1.1-0.7-1.8-0.7L394.6,40.8z"/>
				<path class="st1" d="M413.6,44.1h-5.8l-1.2,3.5h-2.5l5.5-14.9h2.4l5.4,14.9h-2.5L413.6,44.1z M408.5,42h4.4l-2.2-6.3h-0.1
					L408.5,42z"/>
				<path class="st1" d="M429.2,34.7h-4.5v12.9h-2.5V34.7h-4.5v-2h11.5V34.7z"/>
				<path class="st1" d="M440.1,40.8h-6.5v4.7h7.5v2h-10V32.7h10v2h-7.5v4.2h6.5L440.1,40.8z"/>
				<path class="st1" d="M454.8,32.7v14.9h-2.5V34.7h-4.8v4.9c0,2.8-0.4,4.8-1.2,6.1c-0.8,1.3-2.2,2-3.7,1.9h-0.5v-2h0.4
					c0.9,0,1.7-0.5,2-1.3c0.5-1.5,0.6-3.1,0.6-4.7v-6.9H454.8z"/>
				<path class="st1" d="M460.4,38.4h3.1c1.4-0.1,2.8,0.3,3.9,1.2c0.9,0.8,1.5,2,1.4,3.3c0.1,1.3-0.5,2.5-1.4,3.3
					c-1.1,0.9-2.5,1.3-3.9,1.3h-5.6V32.7h2.5L460.4,38.4z M460.4,40.4v5.1h3.1c0.8,0.1,1.5-0.2,2.1-0.7c0.5-0.5,0.7-1.2,0.7-1.9
					c0-0.7-0.2-1.3-0.7-1.8c-0.6-0.5-1.3-0.8-2.1-0.7L460.4,40.4z"/>
				<path class="st1" d="M482,42.6L482,42.6c0.1,1.4-0.5,2.8-1.5,3.7c-1.1,1-2.6,1.5-4.1,1.4c-1.6,0.1-3.1-0.6-4.2-1.7
					c-1.1-1.2-1.7-2.8-1.6-4.5v-2.8c-0.1-1.6,0.5-3.3,1.6-4.5c1.1-1.2,2.6-1.8,4.2-1.8c1.5-0.1,3,0.4,4.1,1.4c1,1,1.5,2.3,1.4,3.7
					v0.1h-2.4c0.1-0.9-0.2-1.7-0.8-2.3c-0.6-0.6-1.5-0.9-2.4-0.8c-1,0-1.9,0.4-2.4,1.2c-0.6,0.9-0.9,1.9-0.9,3v2.9
					c0,1.1,0.3,2.1,0.9,3c0.6,0.8,1.5,1.2,2.5,1.2c0.9,0.1,1.7-0.2,2.3-0.8c0.6-0.6,0.8-1.5,0.8-2.3L482,42.6z"/>
				<path class="st1" d="M488.6,41.1h-1.7v6.4h-2.5V32.7h2.5V39h1.4l4.7-6.3h3l-5.4,7.1l5.8,7.8h-3L488.6,41.1z"/>
				<path class="st1" d="M507,32.7h2.5v14.9H507V36.9h-0.1l-6.6,10.7h-2.5V32.7h2.5v10.6h0.1L507,32.7z"/>
				<path class="st1" d="M521.8,32.7h2.5v14.9h-2.5V36.9h-0.1l-6.6,10.7h-2.5V32.7h2.5v10.6h0.1L521.8,32.7z M521.7,28.3L521.7,28.3
					c0,0.8-0.3,1.6-0.8,2.1c-1.4,1.1-3.4,1.1-4.8,0c-0.6-0.5-0.9-1.2-0.8-2v-0.1h1.8c0,0.4,0.1,0.7,0.3,1c0.6,0.5,1.4,0.5,2,0
					c0.2-0.3,0.4-0.6,0.3-1H521.7z"/>
			</g>
			<g>
				<path class="st1" d="M298.7,64.5l0.5,1.4h0.1l3.1-8.2h2.7L300,70c-0.3,0.8-0.8,1.5-1.4,2.1c-0.7,0.5-1.5,0.8-2.4,0.7h-0.6h-0.5
					v-2h0.4h0.4c0.4,0,0.8-0.1,1.1-0.4c0.3-0.3,0.5-0.7,0.7-1.1l0.3-0.7L293,57.8h2.7L298.7,64.5z"/>
				<path class="st1" d="M318.8,72.7h-2.5v-6.3h-6.7v6.3h-2.5V57.8h2.5v6.5h6.7v-6.5h2.5V72.7z"/>
				<path class="st1" d="M331.1,57.8h2.5v14.9h-2.5V62h-0.1l-6.6,10.7H322V57.8h2.5v10.6h0.1L331.1,57.8z"/>
				<path class="st1" d="M336.9,72.7V57.8h4.9c1.4-0.1,2.7,0.3,3.9,1c0.9,0.7,1.4,1.8,1.4,3c0,0.7-0.2,1.3-0.6,1.8
					c-0.4,0.5-1,1-1.6,1.2c0.8,0.2,1.5,0.6,2,1.3c0.5,0.7,0.7,1.5,0.7,2.3c0.1,1.2-0.4,2.4-1.4,3.2c-1.1,0.8-2.4,1.2-3.8,1.1
					L336.9,72.7z M339.4,64h2.7c0.7,0,1.3-0.2,1.8-0.5c0.5-0.4,0.7-1,0.7-1.5c0.1-0.6-0.2-1.2-0.7-1.6c-0.6-0.4-1.3-0.6-2.1-0.5
					h-2.5V64z M339.4,65.9v4.8h3.1c0.7,0,1.4-0.2,2-0.6c0.5-0.4,0.7-1.1,0.7-1.7c0-0.7-0.2-1.3-0.6-1.8c-0.5-0.5-1.1-0.7-1.8-0.7
					H339.4z"/>
				<path class="st1" d="M359.3,66h-6.5v4.7h7.5v2h-10V57.8h10v2h-7.5V64h6.5L359.3,66z"/>
				<path class="st1" d="M364.9,67v5.6h-2.5V57.8h5.8c1.4-0.1,2.8,0.4,3.9,1.3c1.9,1.8,1.9,4.8,0,6.7c0,0,0,0,0,0
					c-1.1,0.9-2.5,1.3-3.9,1.2H364.9z M364.9,65h3.3c0.8,0.1,1.5-0.2,2.1-0.7c0.5-0.5,0.7-1.2,0.7-1.9c0.1-1.4-1-2.6-2.4-2.6
					c-0.1,0-0.3,0-0.4,0h-3.3V65z"/>
				<path class="st1" d="M386.8,67.7L386.8,67.7c0.1,1.5-0.5,2.8-1.5,3.7c-1.1,1-2.6,1.5-4.1,1.4c-1.6,0.1-3.1-0.6-4.2-1.8
					c-1.1-1.2-1.7-2.8-1.6-4.5v-2.8c-0.1-1.6,0.5-3.2,1.6-4.5c1.1-1.2,2.6-1.8,4.2-1.8c1.5-0.1,3,0.4,4.1,1.4c1,1,1.6,2.3,1.5,3.7
					v0.1h-2.4c0.1-0.9-0.2-1.7-0.8-2.3c-0.6-0.6-1.5-0.9-2.4-0.8c-1,0-1.9,0.4-2.4,1.2c-0.6,0.9-0.9,1.9-0.9,3v2.9
					c0,1.1,0.3,2.1,0.9,3c0.6,0.8,1.5,1.2,2.5,1.2c0.9,0.1,1.7-0.2,2.3-0.8c0.6-0.6,0.9-1.5,0.8-2.3L386.8,67.7z"/>
				<path class="st1" d="M398.3,57.8h2.5v14.9h-2.5V62h-0.1l-6.6,10.7h-2.5V57.8h2.5v10.6h0.1L398.3,57.8z"/>
				<path class="st1" d="M414.2,59.8h-4.5v12.9h-2.5V59.8h-4.5v-2h11.5L414.2,59.8z"/>
				<path class="st1" d="M425.1,66h-6.5v4.7h7.5v2h-10V57.8h10v2h-7.5V64h6.5L425.1,66z"/>
				<path class="st1" d="M438.6,59.8h-4.5v12.9h-2.5V59.8h-4.5v-2h11.5V59.8z"/>
			</g>
		</g>
		<g>
			<g>
				<path class="st1" d="M109.5,7.6l4.3,11.4h0.1l4.3-11.4h3.2v14.9h-2.5v-5.1l0.2-6.4H119l-4.4,11.5H113L108.6,11h-0.1l0.2,6.4v5.1
					h-2.5V7.6H109.5z"/>
				<path class="st1" d="M136.2,16.4c0.1,1.7-0.6,3.3-1.7,4.5c-1.2,1.2-2.8,1.9-4.4,1.8c-1.6,0.1-3.2-0.6-4.3-1.8
					c-1.1-1.2-1.8-2.8-1.7-4.5v-2.7c-0.1-1.7,0.5-3.3,1.7-4.5c1.1-1.2,2.7-1.9,4.3-1.8c1.7-0.1,3.3,0.6,4.4,1.8
					c1.2,1.2,1.8,2.8,1.7,4.5L136.2,16.4z M133.7,13.7c0-1.1-0.3-2.2-1-3.1c-0.7-0.8-1.7-1.3-2.7-1.2c-1,0-2,0.4-2.6,1.2
					c-0.7,0.9-1,1.9-1,3.1v2.7c0,1.1,0.3,2.2,1,3.1c0.6,0.8,1.6,1.2,2.6,1.2c1,0,2-0.4,2.7-1.2c0.7-0.9,1-2,1-3.1L133.7,13.7z"/>
				<path class="st1" d="M149.7,17.5L149.7,17.5c0.1,1.4-0.5,2.8-1.5,3.7c-1.1,1-2.6,1.5-4.1,1.4c-1.6,0-3.1-0.6-4.2-1.8
					c-1.1-1.2-1.7-2.8-1.6-4.5v-2.8c-0.1-1.6,0.5-3.2,1.6-4.5c1.1-1.2,2.6-1.8,4.2-1.8c1.5-0.1,3,0.4,4.1,1.4c1,1,1.6,2.3,1.5,3.7
					v0.1h-2.4c0.1-0.9-0.2-1.7-0.8-2.3c-0.6-0.6-1.5-0.9-2.4-0.8c-1,0-1.9,0.4-2.4,1.2c-0.6,0.9-0.9,1.9-0.9,3v2.8
					c0,1.1,0.3,2.1,0.9,3c0.6,0.8,1.5,1.2,2.5,1.2c0.9,0.1,1.7-0.2,2.3-0.8c0.6-0.6,0.9-1.5,0.8-2.3L149.7,17.5z"/>
				<path class="st1" d="M156.4,16h-1.7v6.4h-2.5V7.6h2.5v6.3h1.4l4.7-6.3h2.9l-5.4,7.1l5.8,7.8h-3L156.4,16z"/>
				<path class="st1" d="M176.8,16.4c0.1,1.7-0.6,3.3-1.7,4.5c-1.2,1.2-2.8,1.9-4.4,1.8c-1.6,0.1-3.2-0.6-4.3-1.8
					c-1.1-1.2-1.7-2.8-1.7-4.5v-2.7c-0.1-1.7,0.5-3.3,1.7-4.5c1.1-1.2,2.7-1.9,4.3-1.8c1.7-0.1,3.3,0.6,4.4,1.8
					c1.2,1.2,1.8,2.8,1.7,4.5V16.4z M174.3,13.7c0-1.1-0.3-2.2-1-3.1c-0.7-0.8-1.7-1.2-2.7-1.2c-1,0-2,0.4-2.6,1.2
					c-0.7,0.9-1,2-0.9,3.1v2.7c0,1.1,0.3,2.2,0.9,3.1c0.6,0.8,1.6,1.2,2.6,1.2c1,0.1,2-0.4,2.7-1.2c0.7-0.9,1-2,1-3.1L174.3,13.7z"
					/>
				<path class="st1" d="M179.5,22.5V7.6h4.9c1.4-0.1,2.7,0.3,3.9,1c0.9,0.7,1.5,1.8,1.4,3c0,0.6-0.2,1.3-0.6,1.8
					c-0.4,0.5-1,1-1.6,1.2c0.8,0.2,1.5,0.6,2,1.3c0.5,0.7,0.7,1.5,0.7,2.3c0.1,1.2-0.4,2.4-1.4,3.2c-1.1,0.8-2.4,1.2-3.8,1.1
					L179.5,22.5z M182,13.8h2.7c0.7,0,1.3-0.2,1.8-0.5c0.5-0.4,0.7-1,0.7-1.6c0-0.6-0.2-1.2-0.7-1.6c-0.6-0.4-1.3-0.6-2.1-0.5H182
					V13.8z M182,15.7v4.8h3.1c0.7,0.1,1.4-0.2,2-0.6c0.5-0.4,0.7-1.1,0.7-1.7c0-0.7-0.2-1.3-0.6-1.8c-0.5-0.5-1.1-0.7-1.8-0.6H182z"
					/>
				<path class="st1" d="M203.7,17.5L203.7,17.5c0.1,1.4-0.5,2.8-1.5,3.7c-1.1,1-2.6,1.5-4.1,1.4c-1.6,0-3.1-0.6-4.2-1.8
					c-1.1-1.2-1.7-2.8-1.6-4.5v-2.8c-0.1-1.6,0.5-3.3,1.6-4.5c1.1-1.2,2.6-1.8,4.2-1.8c1.5-0.1,3,0.4,4.1,1.4c1,1,1.6,2.3,1.5,3.7
					v0.1h-2.4c0.1-0.9-0.2-1.7-0.8-2.3c-0.6-0.6-1.5-0.9-2.4-0.8c-1,0-1.9,0.4-2.4,1.2c-0.6,0.9-0.9,1.9-0.9,3v2.9
					c0,1.1,0.3,2.1,0.9,3c0.6,0.8,1.5,1.2,2.5,1.2c0.9,0.1,1.7-0.2,2.3-0.8c0.6-0.6,0.9-1.5,0.8-2.3L203.7,17.5z"/>
				<path class="st1" d="M210.4,16h-1.7v6.4h-2.5V7.6h2.5v6.3h1.4l4.7-6.3h2.9l-5.4,7.1l5.8,7.8h-3L210.4,16z"/>
				<path class="st1" d="M228.7,7.6h2.5v14.9h-2.5V11.8h-0.1l-6.6,10.7h-2.5V7.6h2.5v10.6h0.1L228.7,7.6z"/>
				<path class="st1" d="M243.6,7.6h2.4v14.9h-2.5V11.8h-0.1l-6.6,10.6h-2.5V7.6h2.5v10.6h0.1L243.6,7.6z M243.4,3.2L243.4,3.2
					c0.1,0.8-0.3,1.6-0.8,2.1c-1.4,1-3.4,1-4.8,0c-0.6-0.5-0.9-1.3-0.8-2V3.2h1.8c0,0.4,0.1,0.7,0.3,1c0.6,0.5,1.5,0.5,2.1,0
					c0.2-0.3,0.4-0.6,0.3-1H243.4z"/>
			</g>
			<g>
				<path class="st1" d="M114.3,44.1h-5.8l-1.2,3.5h-2.5l5.5-14.9h2.3l5.4,14.9h-2.5L114.3,44.1z M109.2,42h4.4l-2.2-6.3h-0.1
					L109.2,42z"/>
				<path class="st1" d="M119.8,47.5V32.7h4.9c1.4-0.1,2.7,0.3,3.9,1c0.9,0.7,1.5,1.8,1.4,3c0,0.6-0.2,1.3-0.6,1.8
					c-0.4,0.5-1,1-1.6,1.2c0.8,0.2,1.5,0.6,2,1.3c0.5,0.7,0.7,1.5,0.7,2.3c0.1,1.2-0.4,2.4-1.4,3.2c-1.1,0.8-2.4,1.2-3.8,1.1
					L119.8,47.5z M122.2,38.9h2.8c0.7,0,1.3-0.2,1.8-0.5c0.5-0.4,0.7-1,0.7-1.5c0-0.6-0.2-1.2-0.7-1.6c-0.6-0.4-1.3-0.6-2.1-0.5
					h-2.5L122.2,38.9z M122.2,40.8v4.8h3.1c0.7,0.1,1.4-0.2,2-0.6c0.5-0.4,0.7-1.1,0.7-1.7c0-0.7-0.2-1.3-0.6-1.8
					c-0.5-0.5-1.1-0.7-1.8-0.7L122.2,40.8z"/>
				<path class="st1" d="M142.2,32.7h2.5v14.9h-2.5V36.9h-0.1l-6.6,10.7h-2.5V32.7h2.5v10.6h0.1L142.2,32.7z"/>
				<path class="st1" d="M156,44.1h-5.8l-1.2,3.5h-2.5l5.5-14.9h2.3l5.4,14.9h-2.5L156,44.1z M150.9,42h4.4l-2.2-6.3h-0.1L150.9,42z
					"/>
				<path class="st1" d="M161.5,32.7h2.5v12.9h6.7V32.7h2.5v12.9h2v5.7h-2.5v-3.7h-11.1V32.7z"/>
				<path class="st1" d="M186.6,32.7h2.5v14.9h-2.5V36.9h-0.1L180,47.5h-2.5V32.7h2.5v10.6h0.1L186.6,32.7z"/>
				<path class="st1" d="M203.9,41.4c0.1,1.7-0.5,3.3-1.7,4.6c-1.2,1.2-2.8,1.8-4.4,1.8c-1.6,0.1-3.2-0.6-4.4-1.8
					c-1.1-1.2-1.7-2.9-1.7-4.5v-2.7c-0.1-1.7,0.5-3.3,1.7-4.5c1.1-1.2,2.7-1.9,4.3-1.8c1.7-0.1,3.3,0.6,4.4,1.8
					c1.1,1.2,1.8,2.8,1.7,4.5V41.4z M201.4,38.7c0-1.1-0.3-2.1-1-3c-0.7-0.8-1.7-1.2-2.7-1.2c-1,0-2,0.4-2.6,1.2
					c-0.6,0.9-1,1.9-0.9,3v2.7c0,1.1,0.3,2.2,0.9,3.1c0.6,0.8,1.6,1.2,2.6,1.2c1,0,2-0.4,2.7-1.2c0.7-0.9,1-2,1-3.1L201.4,38.7z"/>
				<path class="st1" d="M218.2,47.5h-2.5v-6.3h-6.7v6.3h-2.5V32.7h2.5v6.5h6.7v-6.5h2.5V47.5z"/>
				<path class="st1" d="M233.1,47.5h-2.5v-6.3H224v6.3h-2.5V32.7h2.5v6.5h6.7v-6.5h2.5L233.1,47.5z"/>
				<path class="st1" d="M238.9,38.2h3.1c1.4-0.1,2.8,0.4,3.9,1.3c0.9,0.9,1.5,2.1,1.4,3.4c0,1.3-0.5,2.5-1.4,3.4
					c-1.1,0.9-2.5,1.4-3.9,1.3h-5.6V32.7h2.5L238.9,38.2z M238.9,40.2v5.4h3.1c0.8,0.1,1.5-0.2,2.1-0.8c0.5-0.5,0.7-1.3,0.7-2
					c0-0.7-0.2-1.4-0.7-1.9c-0.6-0.5-1.3-0.8-2.1-0.8L238.9,40.2z M251.4,47.5h-2.5V32.7h2.5V47.5z"/>
				<path class="st1" d="M263.6,32.7h2.5v14.9h-2.5V36.9h-0.1L257,47.5h-2.5V32.7h2.5v10.6h0.1L263.6,32.7z M263.6,28.3L263.6,28.3
					c0,0.8-0.3,1.6-0.8,2.1c-1.4,1.1-3.4,1.1-4.8,0c-0.6-0.5-0.9-1.2-0.8-2v-0.1h1.9c0,0.4,0.1,0.7,0.3,1c0.6,0.5,1.5,0.5,2.1,0
					c0.2-0.3,0.4-0.6,0.3-1H263.6z"/>
			</g>
			<g>
				<path class="st1" d="M115.4,57.8h2.5v14.9h-2.5V62h-0.1l-6.6,10.7h-2.5V57.8h2.5v10.6h0.1L115.4,57.8z"/>
				<path class="st1" d="M132.7,72.7h-2.5v-6.3h-6.7v6.3h-2.5V57.8h2.5v6.5h6.7v-6.5h2.5V72.7z"/>
				<path class="st1" d="M146.8,67.7L146.8,67.7c0.1,1.5-0.5,2.8-1.5,3.7c-1.1,1-2.6,1.5-4.1,1.4c-1.6,0.1-3.2-0.6-4.2-1.8
					c-1.1-1.2-1.7-2.8-1.6-4.5v-2.8c-0.1-1.6,0.5-3.2,1.6-4.5c1.1-1.2,2.6-1.8,4.2-1.8c1.5-0.1,3,0.4,4.2,1.4c1,1,1.6,2.3,1.5,3.7
					v0.1h-2.4c0.1-0.9-0.2-1.7-0.8-2.3c-0.6-0.6-1.5-0.9-2.4-0.8c-1,0-1.9,0.4-2.4,1.2c-0.6,0.9-0.9,1.9-0.9,3v2.9
					c0,1.1,0.3,2.1,0.9,3c0.6,0.8,1.5,1.2,2.5,1.2c0.9,0.1,1.7-0.2,2.3-0.8c0.6-0.6,0.9-1.5,0.8-2.3L146.8,67.7z"/>
				<path class="st1" d="M159.1,59.8h-4.5v12.9h-2.5V59.8h-4.5v-2h11.5L159.1,59.8z"/>
				<path class="st1" d="M170.1,57.8h2.5v14.9h-2.5V62h-0.1l-6.6,10.7H161V57.8h2.5v10.6h0.1L170.1,57.8z"/>
				<path class="st1" d="M186,59.8h-4.5v12.9H179V59.8h-4.5v-2H186V59.8z"/>
				<path class="st1" d="M192.6,64.5l0.5,1.4h0.1l3.1-8.2h2.7L193.9,70c-0.3,0.8-0.8,1.5-1.4,2.1c-0.7,0.5-1.5,0.8-2.4,0.7h-0.6
					c-0.2,0-0.4,0-0.5,0v-2h0.4h0.5c0.4,0,0.8-0.1,1.1-0.4c0.3-0.3,0.5-0.7,0.7-1.1l0.3-0.7l-5-10.9h2.7L192.6,64.5z"/>
				<path class="st1" d="M211.5,59.8H207v12.9h-2.5V59.8H200v-2h11.5V59.8z"/>
			</g>
		</g>
		<path class="st2" d="M60.6,0H19.7C20.4,12.8,11.4,20.8,0,22.6c2.8,28.7,17.6,50,43.4,60.7c20.4-8.6,37-24.9,42-47.9
			C90,14.4,79.9,0,60.6,0z"/>
		<path class="st1" d="M60.6,0H19.7C20.4,12.8,11.4,20.8,0,22.6c2.8,28.7,17.6,50,43.4,60.7c20.4-8.6,37-24.9,42-47.9
			C90,14.4,79.9,0,60.6,0z M82.4,34.8c-4.4,20.3-19,36.6-39,45.2c-23.5-10.1-37-30-40-54.9c10.5-2.7,18.7-10.6,19.4-22h38
			C79.3,3,86.2,17.6,82.4,34.8z"/>
		<polygon class="st1" points="41.1,49.6 45.6,49.6 43.5,39.5 		"/>
		<path class="st1" d="M60.8,5.9H25.3c-1.6,10.4-9,17.9-18.8,21.2c3.3,23,16.2,40.8,36.9,50c18.2-8.3,32-23,36.3-42.8
			C83.1,18.8,77.5,5.8,60.8,5.9z M12.5,29.3h21.9l10.4-11.6l-4.4-1.6c-0.5-0.2-0.4-0.7,0-0.7h4.8l1.5-5c0.1-0.3,0.5-0.2,0.5,0l0.5,5
			h4.7c0.3,0,0.5,0.4-0.2,0.7l-4.9,1.7l-7.7,11.5h2.6l-0.9,3.3l-4.1,0.3l-0.4,0.7c-1.2,1.4-4,4.9-5.7,5.3c-0.9,0.1-1.7-0.4-1.8-1.3
			c0-0.3,0-0.6,0.1-0.9c0.4-1.3,1.5-2.4,2.1-3.6l-19-2.4C11.6,30.8,11.7,29.3,12.5,29.3z M67.2,45.5c-1.4,0-1.5,0.6-1.5,2v6.8
			c0,1.5,0.1,2,1.5,2v1.4h-5.9v-1.3c1.3,0,1.5-0.5,1.5-2v-5.3l-4.8,5.9v0.2c0,0.8,0.4,1.2,1.5,1.2v1.4H44.9v-1.4
			c1.1,0,1.7-0.1,1.7-1.1c-0.1-1.4-0.3-2.7-0.7-4.1h-5.4L40,53.8c-0.5,1.8-0.3,2.5,1.6,2.5v1.4H29.3v-1.4c1.5,0,1.6-0.5,1.6-2V48
			l-3.7,9.2l-3.8-9.5v6.7c0,1.3,0.1,1.9,1.6,1.9v1.4h-4.6v-1.4c1.5,0,1.6-0.9,1.6-2.2v-6.6c0-1.2,0-2-1.5-2v-1.4h4.8l2.6,7l2.6-7
			h4.6v1.4c-1.5,0-1.5,0.6-1.5,2v6.8c0,1.3,0.2,1.7,0.5,1.8c0.9,0.3,2.6,0.2,3-0.7c0.5-1,0.8-2,1.1-3l6.3-24.6l5.6,24.2
			c0.6,2.6,1,3.3,1.5,3.8s2.4,0.9,3.1,0.2c0.1-0.2,0.2-0.4,0.2-1.6v-6.8c0-1.5-0.1-2-1.5-2v-1.4h6v1.4c-1.5,0-1.5,0.6-1.5,2v5.3
			l4.7-5.8v-0.2c0-0.6-0.4-1.3-1.5-1.3v-1.4h5.9V45.5z M66.7,30.8l-18.8,1.4l-0.7-2.9h19.5c0.4,0,0.8,0.2,0.8,0.6
			c0,0.4-0.2,0.8-0.6,0.8C66.8,30.8,66.7,30.8,66.7,30.8z"/>
	</g>
</g>
</svg>
